<svg xmlns="http://www.w3.org/2000/svg" width="22" height="22" fill="none"><path stroke="#fff" stroke-linecap="round" stroke-linejoin="round" stroke-width="1.5" d="M15.583 1.833H6.417a4.583 4.583 0 0 0-4.584 4.584v9.166a4.583 4.583 0 0 0 4.584 4.584h9.166a4.583 4.583 0 0 0 4.584-4.584V6.417a4.583 4.583 0 0 0-4.584-4.584"/><path stroke="#fff" stroke-linecap="round" stroke-linejoin="round" stroke-width="1.5" d="M14.667 10.423a3.666 3.666 0 1 1-7.253 1.075 3.666 3.666 0 0 1 7.253-1.075"/><path stroke="#fff" stroke-linecap="round" stroke-linejoin="round" stroke-width="1.5" d="M14.667 10.423a3.666 3.666 0 1 1-7.253 1.075 3.666 3.666 0 0 1 7.253-1.075M16.042 5.958h.01M16.042 5.958h.01"/></svg>