<svg width="10" height="6" viewBox="0 0 10 6" fill="none" xmlns="http://www.w3.org/2000/svg">
<path d="M5.4733 3.93359C5.41132 3.99607 5.33759 4.04567 5.25635 4.07952C5.17511 4.11336 5.08797 4.13079 4.99996 4.13079C4.91196 4.13079 4.82482 4.11336 4.74358 4.07952C4.66234 4.04567 4.58861 3.99607 4.52663 3.93359L1.47329 0.873588C1.41132 0.811103 1.33758 0.761506 1.25634 0.72766C1.1751 0.693815 1.08797 0.67639 0.999959 0.67639C0.911951 0.67639 0.824814 0.693815 0.743575 0.72766C0.662335 0.761506 0.588601 0.811103 0.526626 0.873588C0.402458 0.998497 0.332764 1.16746 0.332764 1.34359C0.332764 1.51971 0.402458 1.68868 0.526626 1.81359L3.58663 4.87359C3.96163 5.24812 4.46996 5.4585 4.99996 5.4585C5.52997 5.4585 6.0383 5.24812 6.4133 4.87359L9.4733 1.81359C9.59646 1.68941 9.6659 1.52182 9.66664 1.34692C9.66714 1.25918 9.65033 1.17221 9.61715 1.09098C9.58397 1.00976 9.53509 0.935882 9.4733 0.873588C9.41133 0.811103 9.33759 0.761506 9.25635 0.72766C9.17511 0.693815 9.08798 0.67639 8.99997 0.67639C8.91196 0.67639 8.82482 0.693815 8.74358 0.72766C8.66234 0.761506 8.58861 0.811103 8.52663 0.873588L5.4733 3.93359Z" fill="#FD9222"/>
</svg>
